<svg width="70" height="70" viewBox="0 0 70 70" fill="black" xmlns="http://www.w3.org/2000/svg">
<g clip-path="url(#clip0_0_311)">
<path d="M24.3072 58.3462C25.0367 59.7796 25.4382 61.3904 25.4382 63.055V67.9452C25.4382 69.08 26.3581 70 27.493 70H42.5143C43.6491 70 44.569 69.08 44.569 67.9452V63.0553C44.569 61.4004 44.9802 59.7892 45.7274 58.3462H24.3072Z" />
<path opacity="0.2" d="M47.9886 23.6219C47.3953 23.3094 46.9923 22.7268 46.909 22.0615C46.8257 21.3962 47.0726 20.7322 47.5704 20.2831C48.0834 19.8203 48.3659 19.1856 48.3659 18.496C48.3659 17.1692 47.2863 16.0897 45.9595 16.0897C45.5704 16.0897 45.1987 16.1803 44.8545 16.3588C44.2447 16.6751 43.517 16.6654 42.9159 16.3325C42.315 15.9999 41.9203 15.3884 41.8647 14.7037C41.764 13.4666 40.7111 12.4976 39.4678 12.4976C38.141 12.4976 37.0615 13.577 37.0615 14.9039V40.1586C37.0615 41.4855 38.141 42.565 39.4678 42.565C40.7111 42.565 41.7638 41.5958 41.8647 40.3586C41.9203 39.674 42.315 39.0625 42.9159 38.7298C43.517 38.397 44.2444 38.3873 44.8545 38.7036C45.1987 38.8822 45.5705 38.9727 45.9595 38.9727C47.2863 38.9727 48.3659 37.8932 48.3659 36.5663C48.3659 35.8766 48.0834 35.242 47.5704 34.7791C47.0726 34.3301 46.8257 33.6661 46.909 33.0008C46.9923 32.3356 47.3954 31.753 47.9886 31.4404C49.4457 30.6728 50.3511 29.1749 50.3511 27.5313C50.351 25.8876 49.4457 24.3898 47.9886 23.6219Z" />
<path opacity="0.2" d="M30.5396 12.4976C29.2963 12.4976 28.2435 13.4667 28.1429 14.7039C28.087 15.3885 27.6924 16 27.0913 16.3327C26.4903 16.6654 25.7625 16.6751 25.1527 16.3587C24.8088 16.1803 24.437 16.0897 24.0478 16.0897C22.7209 16.0897 21.6415 17.1692 21.6415 18.496C21.6415 19.1856 21.924 19.8203 22.437 20.2831C22.9348 20.7322 23.1817 21.3962 23.0984 22.0615C23.0151 22.7268 22.6119 23.3094 22.0188 23.6219C20.5615 24.3896 19.6562 25.8876 19.6562 27.5312C19.6562 29.1748 20.5615 30.6726 22.0188 31.4403C22.6119 31.7529 23.0151 32.3353 23.0985 33.0007C23.1818 33.6659 22.9349 34.3299 22.4371 34.779C21.9241 35.2419 21.6415 35.8766 21.6415 36.5662C21.6415 37.8931 22.7209 38.9725 24.0478 38.9725C24.4369 38.9725 24.8087 38.882 25.1527 38.7036C25.4493 38.5498 25.7736 38.4731 26.0977 38.4731C27.1347 38.4539 28.0779 39.3186 28.1429 40.3585C28.2435 41.5958 29.2964 42.565 30.5396 42.565C31.8665 42.565 32.9459 41.4855 32.9459 40.1586V14.9037C32.9459 13.577 31.8665 12.4976 30.5396 12.4976Z" />
<path d="M55.5485 8.44218C44.7241 -2.83199 25.1894 -2.8023 14.3981 8.46078C0.917718 21.7619 4.02633 44.9072 20.5016 54.2425H49.5124C65.9781 44.9245 69.1007 21.6967 55.5485 8.44218ZM52.4696 36.5664C52.4696 40.1561 49.5491 43.0765 45.9595 43.0765C45.7385 43.0765 45.5177 43.0652 45.2978 43.0425C44.2231 45.1933 41.9901 46.6688 39.4678 46.6688C37.7409 46.6688 36.1702 45.9917 35.0037 44.8907C33.8372 45.9917 32.2665 46.6688 30.5396 46.6688C28.0173 46.6688 25.7844 45.1933 24.7095 43.0425C24.4898 43.065 24.2687 43.0765 24.0478 43.0765C20.4581 43.0765 17.5377 40.1561 17.5377 36.5664C17.5377 35.5661 17.7696 34.5886 18.201 33.7065C16.5307 32.1216 15.5526 29.9055 15.5526 27.5313C15.5526 25.157 16.5307 22.941 18.201 21.3559C17.7696 20.4739 17.5377 19.4965 17.5377 18.4962C17.5377 14.9064 20.4581 11.9861 24.0478 11.9861C24.2689 11.9861 24.4898 11.9974 24.7095 12.0201C25.7843 9.86947 28.0173 8.39375 30.5396 8.39375C32.2665 8.39375 33.8372 9.07087 35.0037 10.1719C36.1701 9.07087 37.7409 8.39375 39.4678 8.39375C41.9901 8.39375 44.2231 9.86933 45.2978 12.0201C45.5174 11.9974 45.7385 11.9861 45.9595 11.9861C49.5491 11.9861 52.4696 14.9064 52.4696 18.4962C52.4696 19.4967 52.2379 20.4739 51.8063 21.3559C53.4768 22.941 54.4547 25.157 54.4547 27.5313C54.4547 29.9055 53.4767 32.1216 51.8063 33.7065C52.2376 34.5886 52.4696 35.5661 52.4696 36.5664Z" />
</g>
<defs>
<clipPath id="clip0_0_311">
<rect width="70" height="70" fill="white"/>
</clipPath>
</defs>
</svg>
