<svg xmlns="http://www.w3.org/2000/svg" width="44" height="44" viewBox="0 0 44 44" fill="black"><g clip-path="url(#clip0_56_1272)"><path opacity="0.2" d="M42.7109 0H1.28906C0.577156 0 0 0.577672 0 1.29027V9.05661H44V1.29027C44 0.577672 43.4228 0 42.7109 0ZM7.77563 3.97237C7.77563 4.68497 7.19847 5.26264 6.48656 5.26264C5.77466 5.26264 5.1975 4.68497 5.1975 3.97237V3.89555C5.1975 3.18295 5.77466 2.60528 6.48656 2.60528C7.19847 2.60528 7.77563 3.18295 7.77563 3.89555V3.97237ZM12.9319 3.97237C12.9319 4.68497 12.3547 5.26264 11.6428 5.26264C10.9309 5.26264 10.3538 4.68497 10.3538 3.97237V3.89555C10.3538 3.18295 10.9309 2.60528 11.6428 2.60528C12.3547 2.60528 12.9319 3.18295 12.9319 3.89555V3.97237ZM18.0881 3.97237C18.0881 4.68497 17.511 5.26264 16.7991 5.26264C16.0872 5.26264 15.51 4.68497 15.51 3.97237V3.89555C15.51 3.18295 16.0872 2.60528 16.7991 2.60528C17.511 2.60528 18.0881 3.18295 18.0881 3.89555V3.97237Z"></path><path d="M0 11.6372V42.7098C0 43.4224 0.577156 44.0001 1.28906 44.0001H42.7109C43.4228 44.0001 44 43.4224 44 42.7098V11.6372H0ZM6.43466 16.1422H11.8447C12.5566 16.1422 13.1337 16.7194 13.1337 17.4313C13.1337 18.1432 12.5566 18.7203 11.8447 18.7203H10.4178V27.2276C10.4178 27.9395 9.84062 28.5166 9.12871 28.5166C8.4168 28.5166 7.83965 27.9395 7.83965 27.2276V18.7203H6.43457C5.72266 18.7203 5.14551 18.1432 5.14551 17.4313C5.14559 16.7194 5.72275 16.1422 6.43466 16.1422ZM37.5547 38.8025H6.33548C5.62358 38.8025 5.04642 38.2248 5.04642 37.5122C5.04642 36.7996 5.62358 36.222 6.33548 36.222H37.5547C38.2666 36.222 38.8438 36.7996 38.8438 37.5122C38.8438 38.2248 38.2666 38.8025 37.5547 38.8025ZM37.5547 33.6413H6.33548C5.62358 33.6413 5.04642 33.0637 5.04642 32.3511C5.04642 31.6385 5.62358 31.0608 6.33548 31.0608H37.5547C38.2666 31.0608 38.8438 31.6385 38.8438 32.3511C38.8438 33.0637 38.2666 33.6413 37.5547 33.6413ZM37.5547 28.4739H14.1559C13.444 28.4739 12.8668 27.8968 12.8668 27.1848C12.8668 26.4729 13.444 25.8958 14.1559 25.8958H37.5547C38.2666 25.8958 38.8438 26.4729 38.8438 27.1848C38.8438 27.8968 38.2666 28.4739 37.5547 28.4739ZM37.5547 23.3177H14.1559C13.444 23.3177 12.8668 22.7405 12.8668 22.0286C12.8668 21.3167 13.444 20.7395 14.1559 20.7395H37.5547C38.2666 20.7395 38.8438 21.3167 38.8438 22.0286C38.8438 22.7405 38.2666 23.3177 37.5547 23.3177Z"></path></g><defs><clipPath id="clip0_56_1272"><rect width="44" height="44" fill="white"></rect></clipPath></defs></svg>