<svg xmlns="http://www.w3.org/2000/svg" width="34" height="34" viewBox="0 0 34 34" fill="black"><g clip-path="url(#clip0_58_1668)"><path opacity="0.2" d="M22.6395 0H0.769535C0.348586 0 0.00732422 0.341262 0.00732422 0.762145V6.08042H17.4382C19.2266 5.11282 21.2317 4.59153 23.3111 4.57678L23.4017 4.57645V0.762145C23.4017 0.341262 23.0605 0 22.6395 0ZM4.68764 3.06671C4.68764 3.61682 4.24165 4.0628 3.69154 4.0628C3.14143 4.0628 2.69545 3.61682 2.69545 3.06671V3.00741C2.69545 2.4573 3.14143 2.01131 3.69154 2.01131C4.24165 2.01131 4.68764 2.4573 4.68764 3.00741V3.06671ZM8.67201 3.06671C8.67201 3.61682 8.22603 4.0628 7.67592 4.0628C7.12581 4.0628 6.67982 3.61682 6.67982 3.06671V3.00741C6.67982 2.4573 7.12581 2.01131 7.67592 2.01131C8.22603 2.01131 8.67201 2.4573 8.67201 3.00741V3.06671ZM12.6564 3.06671C12.6564 3.61682 12.2104 4.0628 11.6603 4.0628C11.1102 4.0628 10.6642 3.61682 10.6642 3.06671V3.00741C10.6642 2.4573 11.1102 2.01131 11.6603 2.01131C12.2104 2.01131 12.6564 2.4573 12.6564 3.00741V3.06671Z"></path><path d="M10.8048 17.0184C10.8439 13.6284 12.2419 10.4255 14.7079 8.07275H0.00732422V24.1008C0.00732422 24.5217 0.348586 24.863 0.769535 24.863H13.4282C11.7248 22.6499 10.7699 19.8949 10.8048 17.0184Z"></path><path d="M23.4018 21.8978C23.7968 20.7569 24.2495 19.7925 24.6415 19.0576H22.1621C22.554 19.7925 23.0067 20.7569 23.4018 21.8978Z"></path><path d="M19.7354 30.3333C19.7354 32.355 21.3802 33.9998 23.4018 33.9998C25.4235 33.9998 27.0683 32.355 27.0683 30.3333V29.5908H19.7354V30.3333Z"></path><path d="M30.8745 9.64829C26.9226 5.56543 19.8819 5.56776 15.9295 9.6631C10.9809 14.4349 12.1102 22.9727 18.0747 26.3461C18.5931 26.6479 19.0116 27.0845 19.2992 27.5988H22.4057C22.4057 22.6018 19.6182 18.6853 19.5901 18.6464C19.371 18.3432 19.3398 17.9421 19.5102 17.609C19.6805 17.2759 20.0226 17.0657 20.3966 17.0657H26.4071C26.7818 17.0657 27.1248 17.2759 27.2948 17.6097C27.4647 17.9436 27.433 18.3446 27.2127 18.6476C27.1855 18.6853 24.398 22.6018 24.398 27.5988H27.5166C27.813 27.0785 28.2453 26.6316 28.7807 26.316C34.7276 22.8852 35.8053 14.4412 30.8745 9.64829Z"></path></g><defs><clipPath id="clip0_58_1668"><rect width="34" height="34" fill="white"></rect></clipPath></defs></svg>